<?xml version="1.0" standalone="no"?>
<!DOCTYPE svg PUBLIC "-//W3C//DTD SVG 20010904//EN"
 "http://www.w3.org/TR/2001/REC-SVG-20010904/DTD/svg10.dtd">
<svg version="1.0" xmlns="http://www.w3.org/2000/svg"
 width="379.000000pt" height="136.000000pt" viewBox="0 0 379.000000 136.000000"
 preserveAspectRatio="xMidYMid meet">
<metadata>
Created by potrace 1.15, written by Peter Selinger 2001-2017
</metadata>
<g transform="translate(0.000000,136.000000) scale(0.100000,-0.100000)"
fill="#000000" stroke="none">
<path d="M1959 1053 c-5 -16 -37 -99 -70 -186 -60 -156 -65 -189 -26 -174 17
6 151 353 143 373 -9 23 -36 16 -47 -13z"/>
<path d="M1687 981 c-48 -49 -87 -92 -87 -96 0 -16 175 -185 192 -185 35 0 17
36 -52 105 -38 38 -70 74 -70 80 0 6 32 42 70 80 39 38 70 77 70 87 0 38 -39
15 -123 -71z"/>
<path d="M2030 1052 c0 -10 32 -49 70 -87 39 -38 70 -74 70 -80 0 -6 -31 -42
-70 -80 -69 -69 -87 -105 -52 -105 17 0 192 169 192 185 0 4 -39 47 -87 96
-84 86 -123 109 -123 71z"/>
<path d="M1731 533 c-12 -14 -24 -37 -27 -49 -4 -15 -15 -24 -32 -26 -23 -3
-28 -9 -33 -45 -3 -24 -2 -43 3 -43 7 0 38 -52 38 -64 0 -2 -20 -16 -45 -30
-70 -42 -74 -107 -7 -114 48 -5 82 34 83 95 l1 48 14 -32 c8 -18 16 -33 19
-33 2 0 13 20 24 45 26 58 44 60 34 3 -12 -71 -9 -128 6 -137 22 -14 33 -5 74
58 28 43 44 59 60 58 12 0 30 3 40 7 14 7 17 3 17 -17 0 -35 23 -40 62 -14 58
40 57 40 68 13 11 -31 26 -33 35 -6 7 23 41 44 55 35 18 -11 11 -23 -25 -45
-36 -22 -55 -64 -37 -82 16 -16 50 8 72 53 12 22 35 49 53 60 l32 19 9 -25
c14 -35 21 -32 40 20 27 69 38 56 31 -32 -5 -60 -3 -82 8 -97 19 -26 31 -16
84 68 48 74 68 96 90 96 10 0 11 -14 6 -60 -6 -58 -5 -60 18 -60 15 0 34 12
51 34 21 26 32 32 51 29 14 -3 34 0 45 6 17 9 20 7 26 -19 8 -42 33 -39 89 10
42 37 46 39 52 20 8 -26 17 -25 46 6 13 14 32 30 42 35 16 9 17 5 11 -46 -6
-50 -5 -55 13 -55 10 0 34 16 53 35 32 33 35 34 52 18 25 -23 23 -36 -12 -61
-46 -35 -36 -92 16 -92 31 0 49 27 47 74 -1 29 5 48 20 63 26 29 33 29 41 1 6
-21 9 -18 32 24 13 27 28 48 32 48 5 0 5 -24 1 -52 -12 -82 -10 -105 7 -123
21 -20 35 -9 81 62 21 34 38 50 47 47 8 -3 23 -1 34 5 17 9 21 7 26 -14 9 -35
47 -33 91 6 20 18 33 34 31 37 -3 2 -21 -9 -41 -27 -51 -44 -69 -42 -61 9 7
44 -2 50 -29 20 -25 -28 -45 -25 -45 7 0 21 -10 11 -52 -57 -74 -117 -83 -117
-74 4 6 89 5 97 -11 94 -9 -2 -27 -18 -40 -36 -21 -33 -22 -33 -33 -11 -15 27
-9 57 24 134 43 100 29 160 -24 103 -38 -41 -50 -127 -28 -199 10 -36 9 -41
-13 -65 l-24 -25 -28 31 c-22 25 -25 34 -17 51 13 24 5 39 -20 39 -22 0 -30
-18 -19 -47 9 -23 -17 -65 -51 -83 -17 -9 -18 -6 -13 45 7 66 -7 72 -62 24
-25 -22 -35 -27 -35 -16 0 32 -22 28 -65 -12 -53 -49 -75 -53 -75 -13 0 31
-27 62 -53 62 -10 0 -43 -27 -74 -60 -31 -33 -60 -60 -66 -60 -9 0 -6 36 8 93
6 23 4 27 -14 27 -23 0 -24 4 -12 35 17 42 -35 75 -67 43 -17 -17 -15 -63 3
-78 12 -10 7 -23 -33 -88 -26 -41 -52 -77 -58 -79 -19 -6 -23 34 -12 104 6 40
6 69 1 74 -15 15 -40 0 -53 -32 -16 -39 -28 -37 -36 6 -5 28 0 50 22 98 34 77
39 142 9 142 -14 0 -27 -14 -43 -45 -20 -38 -23 -56 -19 -110 3 -36 8 -73 12
-82 5 -12 -2 -21 -24 -33 -28 -14 -32 -14 -37 0 -9 21 -47 19 -78 -6 l-26 -20
0 20 c0 11 13 41 29 67 53 83 49 139 -8 132 -36 -4 -56 -49 -54 -123 0 -57 -1
-61 -35 -87 -51 -40 -65 -37 -57 12 7 44 -2 51 -30 20 -26 -28 -45 -25 -45 7
0 22 -10 10 -52 -60 -29 -48 -57 -86 -63 -84 -6 3 -9 40 -7 96 3 105 -9 118
-52 54 l-25 -36 -11 27 c-14 39 -13 51 14 104 29 58 47 119 39 138 -8 22 -29
17 -52 -13z"/>
<path d="M214 465 c3 -22 10 -80 17 -130 14 -108 30 -135 27 -45 l-3 65 30 0
c27 0 31 -4 40 -42 14 -57 28 -70 59 -55 13 6 33 8 44 5 11 -2 23 0 26 6 12
19 26 12 26 -14 0 -41 38 -37 96 11 39 31 42 32 47 14 8 -30 29 -24 55 15 27
43 46 46 37 7 -4 -19 -1 -33 9 -41 12 -10 20 -5 47 29 18 22 36 40 41 40 4 0
5 -25 2 -55 -6 -49 -5 -55 11 -55 11 0 29 10 42 22 16 14 34 21 54 20 16 -1
38 2 49 8 17 9 20 8 20 -8 0 -21 18 -42 38 -42 7 0 37 23 66 50 52 49 95 67
82 34 -17 -44 -18 -90 -1 -104 14 -12 22 -7 66 40 27 29 47 56 43 59 -3 3 -24
-15 -46 -41 -22 -27 -45 -48 -50 -48 -11 0 -6 71 7 103 5 13 2 17 -14 17 -19
0 -21 4 -15 40 6 36 4 39 -20 46 -19 4 -33 1 -46 -11 -25 -23 -25 -43 0 -70
l21 -22 -41 -37 c-49 -44 -70 -47 -70 -8 0 30 -26 62 -51 62 -8 0 -41 -23 -72
-51 -32 -28 -61 -49 -64 -46 -3 4 -1 23 4 44 19 73 -13 86 -64 26 l-32 -38 -1
43 c0 53 -19 55 -56 7 -30 -40 -44 -44 -44 -15 0 27 -20 25 -50 -6 -60 -64
-95 -67 -84 -8 7 39 -4 44 -31 14 -26 -28 -45 -25 -46 8 0 24 -1 25 -8 7 -5
-11 -18 -28 -29 -38 -20 -18 -21 -18 -31 2 -6 11 -11 29 -11 40 0 22 -27 55
-51 63 -12 4 -11 8 2 24 9 10 19 28 23 39 4 11 -11 0 -32 -25 l-39 -45 -7 51
c-4 27 -12 56 -17 64 -8 11 -9 4 -5 -25z"/>
</g>
</svg>
